<?xml version="1.0" encoding="UTF-8" standalone="no"?>
<svg
   xmlns:dc="http://purl.org/dc/elements/1.1/"
   xmlns:cc="http://creativecommons.org/ns#"
   xmlns:rdf="http://www.w3.org/1999/02/22-rdf-syntax-ns#"
   xmlns:svg="http://www.w3.org/2000/svg"
   xmlns="http://www.w3.org/2000/svg"
   id="svg3702"
   version="1.1"
   viewBox="0 0 311 190"
   height="190mm"
   width="311mm">
  <defs
     id="defs3696" />
  <metadata
     id="metadata3699">
    <rdf:RDF>
      <cc:Work
         rdf:about="">
        <dc:format>image/svg+xml</dc:format>
        <dc:type
           rdf:resource="http://purl.org/dc/dcmitype/StillImage" />
        <dc:title></dc:title>
      </cc:Work>
    </rdf:RDF>
  </metadata>
  <g
     transform="translate(0,-107)"
     id="layer1">
    <path
       style="stroke-width:0.26458332"
       d="m 277.43453,267.51785 -57.61004,-16.91237 -46.59201,37.8699 -1.71787,-60.01661 -50.41413,-32.60919 56.54834,-20.17994 15.43436,-58.02349 36.66666,47.54472 59.9531,-3.25129 -33.8871,49.56419 z"
       id="path3774" />
    <path
       d="m 193.02209,199.64735 c 2.1015,-0.85805 4.08932,-1.98885 6.09557,-3.05126 -16.85162,8.83276 -9.40918,6.24873 -7.20299,3.8233 0.43691,-0.48032 0.76774,-1.04944 1.13215,-1.58361 0.52208,-1.03118 1.12627,-2.00519 1.75325,-2.97383 0.64025,-1.03936 1.20681,-2.11432 1.72511,-3.22037 0.58249,-1.02613 1.20067,-2.03462 1.84692,-3.02191 0.89459,-3.13001 11.7408,-9.24075 10.04116,-5.02048 -0.3747,1.13747 -0.7536,2.24757 -0.94615,3.43575 -0.18805,1.45418 -0.19692,2.92327 -0.2099,4.38712 -0.0157,1.49791 -0.0548,2.98681 0.17186,4.47034 0.13356,1.41612 0.50659,2.75759 0.87368,4.12253 0.30009,1.30694 0.3453,2.63214 0.67398,3.93137 0.35754,1.34883 0.45379,2.74153 0.51629,4.12934 0.30846,1.26486 0.54272,2.53701 0.67117,3.83259 0.24666,1.45984 0.51366,2.91835 0.88557,4.3521 0.42839,1.50978 0.59601,3.06736 0.69102,4.62802 0.26906,1.43673 0.34489,2.93684 0.75216,4.34216 0.46144,1.00604 1.29726,0.63709 2.1951,0.57194 0.61408,-0.0605 1.23745,0.0462 1.80054,-0.27442 0.16867,-0.096 0.6164,-0.46783 0.44697,-0.37315 -4.30724,2.40676 -11.80291,6.8047 -8.24915,4.72054 3.63658,-2.82963 7.49257,-5.94747 11.99434,-7.04464 1.27849,-0.12354 2.49356,-0.24194 3.66692,-0.79821 -3.0272,2.19276 -6.0331,4.41522 -9.08159,6.57828 -0.27561,0.19556 -0.74086,0.22495 -1.03,0.35613 -0.19026,0.0863 -0.34845,0.23133 -0.53067,0.33355 -0.1848,0.10367 -0.75261,0.38917 -0.56902,0.28337 2.85745,-1.6468 5.72771,-3.27126 8.59157,-4.9069 -1.06485,0.69026 -2.00173,1.54119 -3.06232,2.23939 -1.02078,0.78871 -2.05951,1.54841 -3.12315,2.2798 -0.96766,0.77822 -1.99943,1.47205 -3.00768,2.19614 -3.30218,2.66127 -7.98023,4.81327 -11.19152,6.58693 -0.87932,0.27296 -0.46502,0.0906 -1.24551,0.54106 -1.20837,0.38956 -2.23594,1.12466 -3.37891,1.65954 8.71031,-4.98893 11.27264,-6.67273 7.99956,-4.54022 0,0 -9.89748,3.83666 -9.89748,3.83666 v 0 c 3.73309,-2.21589 0.36426,-0.21835 10.15226,-5.91474 1.10408,-0.61971 2.24499,-1.13531 3.40112,-1.64786 0.41335,-0.16558 1.60749,-0.76168 1.22352,-0.5362 -15.04193,8.83324 -10.16121,5.90965 -6.93612,4.00892 0.89102,-0.87211 1.99273,-1.46371 2.98758,-2.20946 0.9862,-0.9312 2.27862,-1.42906 3.21535,-2.42305 1.02152,-0.69793 2.01964,-1.39707 2.95644,-2.19575 3.2023,-1.86336 6.39584,-3.74185 9.60691,-5.59007 0.55507,-0.31949 1.24013,-0.5302 1.86038,-0.67676 0.21427,-0.0506 0.8187,-0.25414 0.65106,-0.11139 -2.64107,2.24895 -5.42516,4.32434 -8.13774,6.48651 -1.18257,0.16975 -2.3938,0.32581 -3.52117,0.73347 -3.49314,1.77696 -0.83409,0.43684 8.13138,-4.77658 0.62604,-0.36404 -2.44007,1.54955 -1.78868,1.23312 -3.22496,3.67856 -7.80035,6.07744 -12.55747,6.27623 -1.5371,0.0474 -2.30392,-0.38115 -2.8625,-1.88779 -0.30646,-1.50694 -0.41944,-3.05119 -0.76903,-4.55288 -0.0658,-1.49561 -0.17611,-2.99561 -0.56911,-4.44722 -0.40123,-1.47414 -0.69316,-2.96369 -1.05314,-4.449 -0.14295,-1.31672 -0.43836,-2.59818 -0.66464,-3.90079 -0.0691,-1.31151 -0.17602,-2.62512 -0.51847,-3.89868 -0.31019,-1.3001 -0.3504,-2.62843 -0.64251,-3.93227 -0.3534,-1.41186 -0.62206,-2.82308 -0.79959,-4.26912 -0.27488,-1.53617 -0.31924,-3.06063 -0.26574,-4.62162 0.001,-1.48506 -0.003,-2.97143 0.081,-4.45467 0.0868,-1.14874 0.16624,-2.34317 0.68554,-3.39207 0.014,-4.75871 12.67362,-9.35746 9.46183,-4.03168 -0.5968,1.048 -1.30325,2.01213 -1.94405,3.0271 -0.67554,0.99203 -0.86079,2.23374 -1.65302,3.15525 -0.4811,1.1111 -1.39334,1.93751 -1.80425,3.08993 -2.75425,4.61061 -5.52754,5.631 -11.65283,8.46717 -2.0629,1.0508 -4.17485,2.00454 -6.20621,3.11871 0,0 8.1331,-6.50571 8.1331,-6.50571 z"
       id="path3780"
       style="fill:#ffffff;stroke-width:0.26458332" />
    <path
       d="m 225.87683,179.91613 c -1.41668,2.06952 -2.2518,4.43063 -3.19229,6.73242 -0.45238,1.3091 -1.10847,2.52777 -1.47711,3.86458 -0.30691,1.37496 -0.32178,2.79063 -0.34409,4.1926 -0.0124,1.50848 -0.004,3.01704 1.5e-4,4.52554 7.9e-4,0.96979 -0.0725,2.19744 1.22346,1.9501 1.06949,-0.0601 1.99769,-0.56196 3.0554,-0.76322 1.23286,-0.14889 2.54917,-0.37011 3.63929,-0.99313 1.14989,-0.58184 2.44343,-0.65651 3.70641,-0.72508 1.30777,-0.12986 2.56145,-0.53687 3.88565,-0.67453 1.44364,-0.11501 2.8932,-0.11326 4.34041,-0.11758 1.38608,-0.0565 2.70582,0.35374 3.9675,0.87734 1.02204,0.6247 1.96759,1.33104 2.64253,2.3297 0.66421,1.28105 0.70657,2.73697 0.75839,4.14795 0.13424,1.48406 -0.0242,2.85309 -0.54257,4.24249 -0.57363,1.12081 -1.03922,2.28919 -1.56443,3.43266 -0.53669,0.97821 -1.00095,2.04017 -1.77561,2.85594 -0.89784,0.85863 -1.58224,1.90245 -2.44215,2.79416 -5.95602,4.23519 -7.58413,5.81782 -13.03576,5.91818 -0.74746,0.008 -1.49496,0.003 -2.24242,-5.3e-4 0,0 8.47535,-6.16082 8.47535,-6.16082 v 0 c 0.74668,-0.007 1.49377,-0.0116 2.23936,-0.0579 4.55957,-0.36481 9.46565,-4.30431 -5.33903,4.26548 1.07717,-0.61861 1.66473,-1.68793 2.44989,-2.61422 1.47473,-1.63978 -0.73714,0.75917 0.78007,-0.69493 0.54881,-0.52598 0.57529,-1.39657 1.19976,-1.87719 0.16418,-0.3659 0.39189,-0.70155 0.5494,-1.07037 0.34209,-0.80105 0.50732,-1.67821 1.13921,-2.33873 0.47668,-1.27951 0.97963,-2.48012 0.76519,-3.88467 -0.055,-1.19028 -0.0816,-2.43897 -0.64966,-3.51632 -0.58707,-0.79341 -1.41291,-1.37114 -2.27769,-1.83333 -1.13868,-0.44795 -2.34166,-0.71269 -3.5728,-0.64382 -1.44701,0.0254 -2.89949,0.0563 -4.33221,0.28082 -1.29606,0.23023 -2.56556,0.5993 -3.89138,0.61992 -1.26144,0.17223 -2.46764,0.48488 -3.61607,1.04954 -1.22872,0.32454 -2.45156,0.61259 -3.70207,0.83942 -1.15531,0.34472 -2.27846,0.76747 -3.50739,0.51576 -1.39423,-0.60312 -1.7458,-1.9651 -1.65744,-3.39555 -0.004,-1.50928 -0.011,-3.01854 -0.0182,-4.5278 -0.002,-1.45137 -0.0233,-2.90977 0.16004,-4.35244 0.27965,-1.56401 1.0053,-2.84412 1.73625,-4.23438 1.12361,-2.15387 2.29802,-4.32257 2.97767,-6.665 0,0 9.48897,-4.29311 9.48897,-4.29311 z"
       id="path3782"
       style="fill:#ffffff;stroke-width:0.26458332" />
    <path
       d="m 224.88612,181.67015 c 2.44381,-0.51333 4.85499,-1.11413 7.226,-1.89098 1.5761,-0.53788 3.22543,-0.69129 4.87723,-0.75763 1.16374,-0.1327 2.75775,-0.34319 3.82312,-0.83827 -1.02249,0.5867 2.85176,-1.53627 2.00478,-1.04238 -12.08177,7.04508 -11.37963,6.61992 -8.23575,4.68417 32.2469,-18.05802 -21.54767,12.04624 10.64308,-6.06689 0.16818,-0.0946 0.37619,-0.0986 0.54822,-0.18605 0.60781,-0.43243 0.28917,-0.24084 0.95589,-0.57481 -2.96046,1.69991 -5.92092,3.39982 -8.88137,5.09973 0,0 10.12229,-3.94536 10.12229,-3.94536 v 0 c -3.19313,1.85068 -6.38625,3.70136 -9.57938,5.55203 -1.12392,0.63772 0.1586,-0.0683 -0.99398,0.49926 -0.17141,0.0844 -0.66847,0.37027 -0.50321,0.2744 2.88919,-1.67609 11.63244,-6.56796 8.67516,-5.01517 -1.20253,0.63141 -23.0724,13.28183 -0.99081,0.52371 -4.06759,2.21414 -7.82577,5.1512 -12.18945,6.7242 -1.2793,0.23338 -2.53918,0.5729 -3.85224,0.52651 -1.52243,0.11158 -3.02943,0.33328 -4.49752,0.76639 -2.45935,0.61852 -4.9968,0.97795 -7.33237,2.02238 0,0 8.18031,-6.35524 8.18031,-6.35524 z"
       id="path3784"
       style="fill:#ffffff;stroke-width:0.26458332" />
    <path
       d="m 235.36842,181.37466 c -2.30021,-0.37915 -4.57002,0.3775 -6.78624,0.91034 -0.32187,0.0671 -0.6501,0.10891 -0.9656,0.20146 -0.52641,0.15442 -1.01685,0.41419 -1.53748,0.58711 -0.68287,0.22681 -1.31888,0.31917 -1.96673,0.63895 -0.75844,0.30316 -0.37226,0.17115 -1.15861,0.39588 0,0 8.40963,-6.52823 8.40963,-6.52823 v 0 c 0.74774,-0.28003 0.37414,-0.14202 1.12077,-0.41409 1.40121,-0.34606 2.76028,-0.85128 4.1985,-1.03982 2.35204,-0.46985 4.71093,-0.73964 7.10698,-0.86997 0,0 -8.42122,6.11837 -8.42122,6.11837 z"
       id="path3786"
       style="fill:#ffffff;stroke-width:0.26458332" />
    <path
       d="m 236.84907,181.2358 c -2.35268,-0.53341 -4.87481,-0.81341 -7.27654,-0.48718 -0.82021,0.1616 -1.64688,0.17543 -2.39534,0.58521 -0.19596,0.10729 -0.74792,0.48791 -0.55326,0.37829 8.05169,-4.53438 11.14251,-6.65834 7.80482,-4.39009 -0.9848,0.78147 -1.99236,1.5267 -3.02995,2.23781 -5.58662,3.76542 -19.65091,11.40397 -1.37193,0.9712 0.16198,-0.0924 -0.30006,0.22303 -0.46182,0.31585 -9.71218,5.57302 -6.07222,4.68729 -10.27584,5.64104 -0.20962,0.0299 -0.42522,0.0316 -0.62885,0.0897 -0.38159,0.10874 -0.72563,0.32733 -1.10617,0.43973 -0.62164,0.18361 -1.16632,0.22583 -1.75529,0.51097 -0.53164,0.32343 -1.18394,0.29044 -1.75164,0.47856 -0.56662,0.18777 -1.0675,0.47785 -1.65536,0.63965 -5.17282,2.96309 11.38254,-6.87555 7.26062,-4.12668 0,0 -9.98311,3.89097 -9.98311,3.89097 v 0 c 3.61,-2.27043 7.12185,-4.85657 11.14038,-6.29455 1.12139,-0.42333 2.27572,-0.72085 3.39791,-1.14481 1.18565,-0.27458 2.32436,-0.7016 3.49465,-1.0282 0.17912,-0.0833 0.7077,-0.34987 0.53736,-0.24985 -2.877,1.68934 -5.77513,3.34244 -8.65953,5.01911 -0.15799,0.0918 0.3225,-0.17219 0.48019,-0.26454 3.19966,-1.87383 6.41698,-3.71814 9.5917,-5.63391 2.69238,-1.6247 -12.03954,7.30483 -8.15938,4.73513 0.96616,-0.92525 2.24484,-1.40961 3.16572,-2.39453 4.09671,-2.78126 8.0723,-6.49895 13.14292,-6.43328 2.50913,0.17842 5.0103,0.56365 7.53148,0.49293 0,0 -8.48374,6.0215 -8.48374,6.0215 z"
       id="path3788"
       style="fill:#ffffff;stroke-width:0.26458332" />
    <text
       id="text3792"
       y="197.21428"
       x="151.94643"
       style="font-style:normal;font-weight:normal;font-size:10.58333302px;line-height:1.25;font-family:sans-serif;letter-spacing:0px;word-spacing:0px;fill:#ffffff;fill-opacity:1;stroke:none;stroke-width:0.26458332;"
       xml:space="preserve"><tspan
         style="stroke-width:0.26458332;fill:#ffffff;"
         y="206.86978"
         x="151.94643"
         id="tspan3790" /></text>
    <path
       d="m 199.64489,154.0373 c -0.86886,-0.13737 -1.74944,-0.17813 -2.62752,-0.20609 -0.27953,0.0599 -0.58448,0.0556 -0.85943,0.13947 -1.03085,0.31434 -5.12368,2.84704 2.801,-1.63208 -0.38254,0.22963 -0.70812,0.54244 -1.04268,0.83545 -0.32197,0.31267 -0.63196,0.63586 -0.93165,0.96982 -0.30458,0.29115 -0.56021,0.63314 -0.76305,1.00173 -0.21071,0.3662 -0.47398,0.69649 -0.70302,1.05104 -0.29629,0.39677 -0.56815,0.81101 -0.78789,1.25499 -0.22307,0.41822 -0.40008,0.83991 -0.48757,1.30636 -0.0821,0.45196 -0.004,0.89352 0.23202,1.28538 0.28124,0.36192 0.52873,0.74788 0.78113,1.13047 0.24518,0.38484 0.48739,0.76966 0.71832,1.16382 0.23495,0.3207 0.50097,0.61905 0.78949,0.89295 0.35029,0.29205 0.70207,0.5874 1.06688,0.86235 0.36073,0.17493 0.71283,0.35887 1.10715,0.44784 0.38826,0.22434 0.83757,0.24301 1.25499,0.37232 0.49586,0.15431 1.01287,0.20058 1.52851,0.22892 0.51104,0.009 1.02298,0.10286 1.48773,-0.14458 -7.54051,3.61716 -3.42338,2.30937 -2.68887,1.40715 0.11154,-0.13701 0.12304,-0.19657 0.19194,-0.35867 0.14291,-0.47696 0.13912,-0.98062 0.14533,-1.47401 0.002,-0.26729 2.7e-4,-0.5346 -7.9e-4,-0.80189 0,0 3.47803,-1.77425 3.47803,-1.77425 v 0 c 0.001,0.26852 0.003,0.53705 0.004,0.80558 -5.3e-4,0.52455 0.005,1.05288 -0.0808,1.57206 -0.0873,0.38557 -0.21024,0.78228 -0.57653,0.9948 -1.18311,0.68643 -2.37593,1.35599 -3.56389,2.03398 -0.5182,0.0945 -1.04817,0.0353 -1.57151,0.0122 -0.53339,-0.0478 -1.0611,-0.13122 -1.57618,-0.28201 -0.43447,-0.0895 -0.8577,-0.20042 -1.26789,-0.37243 -0.41978,-0.13758 -0.82651,-0.33232 -1.19402,-0.57721 -0.36235,-0.29983 -0.7333,-0.58959 -1.08676,-0.89952 -0.30435,-0.30844 -0.61449,-0.61215 -0.84697,-0.98103 -0.22338,-0.38803 -0.45072,-0.7712 -0.69588,-1.1458 -0.26658,-0.38467 -0.50626,-0.7873 -0.80146,-1.15132 -0.25873,-0.4641 -0.40566,-0.98796 -0.3468,-1.52266 0.0582,-0.49781 0.16019,-0.98294 0.45188,-1.40279 0.1834,-0.4767 0.4474,-0.90892 0.73564,-1.32908 0.2678,-0.31237 0.46343,-0.69347 0.70698,-1.0221 0.25947,-0.35159 0.42019,-0.77531 0.73673,-1.09092 0.34576,-0.28679 0.58452,-0.68019 0.93864,-0.95998 0.29278,-0.34884 0.67634,-0.59998 0.99035,-0.92709 1.85035,-1.05002 2.92249,-2.23655 4.86012,-2.17259 0.89154,0.0572 1.78046,0.14588 2.67186,0.20437 0,0 -3.17721,2.25509 -3.17721,2.25509 z"
       id="path3794"
       style="fill:#ffffff;stroke-width:0.26458332" />
    <path
       d="m 201.80519,159.64674 c 0.85543,0.23398 1.73924,0.33553 2.62139,0.40112 0.5206,0.0338 1.0424,0.0363 1.56386,0.0372 0,0 -3.1573,2.28845 -3.1573,2.28845 v 0 c -0.5174,-0.0109 -1.03502,-0.0296 -1.54969,-0.0875 -0.89815,-0.10533 -1.7871,-0.26621 -2.67797,-0.4198 0,0 3.19971,-2.21947 3.19971,-2.21947 z"
       id="path3796"
       style="fill:#ffffff;stroke-width:0.26458332" />
    <path
       d="m 257.33654,182.88891 c 0.35391,-0.72646 0.75767,-1.42583 1.1411,-2.13632 0.26418,-0.50674 0.53903,-1.00919 0.72403,-1.55111 0.16648,-0.53294 0.36798,-1.05364 0.55857,-1.57817 0.1895,-0.41151 0.3087,-0.84732 0.49069,-1.26174 0.21536,-0.33672 0.35619,-0.71132 0.51372,-1.07684 0.13077,-0.40221 0.28377,-0.79428 0.40126,-1.20085 0.15195,-0.39192 0.26605,-0.79486 0.41112,-1.18923 0.12511,-0.42891 0.18115,-0.87043 0.29694,-1.30235 0.11135,-0.40627 0.11448,-0.83146 0.24241,-1.23322 1.86308,-1.16858 3.2186,-2.91773 4.58378,-1.2525 0.32498,0.39874 0.6796,0.7717 1.00134,1.17266 0.32517,0.48432 0.72525,0.91084 1.09212,1.3623 0.29485,0.35598 0.61476,0.70076 0.96488,1.00386 0.33711,0.35025 0.54338,0.80289 0.75062,1.23713 0.27837,0.50746 0.54161,1.02999 0.86567,1.51029 0.0477,0.0752 0.0954,0.15043 0.14316,0.22565 0,0 -3.37735,1.96322 -3.37735,1.96322 v 0 c -0.0444,-0.074 -0.0888,-0.14793 -0.13314,-0.2219 -0.3152,-0.50605 -0.59722,-1.03359 -0.89575,-1.54947 -0.18885,-0.38829 -0.38872,-0.78755 -0.69265,-1.09928 -0.34631,-0.33573 -0.67892,-0.68844 -0.98126,-1.06429 -0.3556,-0.45419 -0.73475,-0.88953 -1.07019,-1.35935 -0.34954,-0.3799 -0.68745,-0.76672 -1.02042,-1.16113 -1.18803,-1.30204 -3.85178,1.37118 2.41954,-2.30133 -0.39997,0.10196 -0.25265,0.76378 -0.35454,1.07267 -0.10369,0.44333 -0.23791,0.86946 -0.2822,1.32578 -0.1179,0.40849 -0.29052,0.79362 -0.40191,1.20464 -0.0975,0.20067 -0.12083,0.39988 -0.19212,0.61001 -0.022,0.065 -0.0503,0.12764 -0.0754,0.19147 -0.0288,0.0577 -0.0656,0.11203 -0.0865,0.17306 -0.0246,0.0721 -0.0325,0.14889 -0.0488,0.22333 -0.12296,0.39363 -0.30713,0.76849 -0.48169,1.1397 -0.28487,0.36068 -0.33313,0.82066 -0.53011,1.22787 -0.25228,0.48527 -0.38014,1.03211 -0.58435,1.53928 -0.15444,0.57731 -0.42015,1.10634 -0.71139,1.62641 -0.3645,0.71425 -0.8691,1.35668 -1.13018,2.12315 0,0 -3.55102,1.6066 -3.55102,1.6066 z"
       id="path3798"
       style="fill:#ffffff;stroke-width:0.26458332" />
    <path
       d="m 263.77513,174.73251 c 0.88265,-0.0477 1.75885,-0.11881 2.62824,-0.27756 0.61728,-0.10441 1.23283,-0.16286 1.84272,-0.30166 1.39557,-0.32965 4.17272,-2.1754 -2.00438,1.34592 1.50704,-0.9216 3.02459,-1.84623 4.60026,-2.63651 -5.57903,3.39032 -3.68578,2.24847 -2.55077,1.35826 0,0 3.63646,-1.50063 3.63646,-1.50063 v 0 c -0.98443,1.1664 -3.83839,1.6976 -4.14131,2.59813 -1.18502,0.66113 -2.61588,1.51023 2.72214,-1.60188 0.65487,-0.3818 -1.31445,0.7446 -0.61286,0.37065 -1.52535,0.876 -2.98891,2.08174 -4.75641,2.42304 -0.60211,0.11584 -1.21635,0.14932 -1.8195,0.26198 -0.88737,0.12649 -1.78502,0.14605 -2.67112,0.2851 0,0 3.12653,-2.32484 3.12653,-2.32484 z"
       id="path3800"
       style="fill:#ffffff;stroke-width:0.26458332" />
    <path
       d="m 245.02481,252.37069 c 0.27829,-0.82197 0.55991,-1.64669 0.79049,-2.48401 0.15587,-0.5439 0.16706,-1.10934 0.21866,-1.66803 0.10159,-0.45234 0.16227,-0.91057 0.2301,-1.36855 0.12655,-0.43966 0.20856,-0.88538 0.25171,-1.34036 0.0447,-0.51594 0.0231,-1.03436 0.055,-1.55066 0.0873,-0.46163 0.1697,-0.92165 0.21134,-1.38998 0.0343,-0.48522 0.0643,-0.96819 -0.0249,-1.44801 -0.0477,-0.42942 -0.2245,-0.64924 -0.51372,-0.93444 -0.35681,-0.22993 -0.63868,-0.54955 -0.96019,-0.82204 -0.0665,-0.0441 -0.73583,-0.38664 -0.76774,-0.33088 -0.0232,0.0406 0.0211,0.0912 0.0317,0.13674 2.80283,-2.02935 3.09867,-3.12021 3.91004,-1.0881 0.17098,0.39577 0.43098,0.73938 0.64723,1.11017 0.22274,0.35253 0.51268,0.64871 0.7783,0.96655 0.25253,0.36101 0.53504,0.69742 0.80541,1.04456 0.24177,0.29229 0.52836,0.51763 0.84865,0.71788 0.37328,0.13622 0.7242,0.31062 1.11573,0.39452 0.47926,0.0783 0.9666,0.0799 1.45091,0.085 0.34976,0.0104 0.6888,0.0328 0.99793,-0.159 0.0707,-0.0439 0.27296,-0.18968 0.20035,-0.149 -1.05344,0.59007 -2.09633,1.19877 -3.14449,1.79816 0.39368,-0.36221 0.64587,-0.85079 0.87759,-1.32626 0.25357,-0.41068 0.36909,-0.86135 0.42901,-1.33446 0.0478,-0.51802 0.0437,-1.039 0.0438,-1.55869 -0.001,-0.53499 -0.003,-1.06996 -0.004,-1.60495 -7.9e-4,-0.53479 -7.9e-4,-1.06959 -10e-4,-1.60438 -1e-5,-0.18105 0.0106,-0.30215 -0.025,-0.47648 -0.0105,-0.0516 -0.09,-0.18986 -0.0737,-0.13976 0.0272,0.0838 0.0266,0.28273 0.1049,0.24243 1.15648,-0.59528 2.22727,-1.34406 3.34091,-2.0161 0.0577,0.43576 0.2109,0.85581 0.35266,1.27055 0.2587,0.45137 0.52501,0.88103 0.6851,1.38011 0.17617,0.44851 0.38632,0.87923 0.5246,1.34169 0.13771,0.40821 0.38413,0.75702 0.53133,1.1612 0.19092,0.40195 0.35282,0.81859 0.49119,1.24146 0.13314,0.46212 0.30686,0.90453 0.39746,1.37881 0.0941,0.39179 0.29714,0.74092 0.46845,1.10286 0.24684,0.50339 0.41435,1.03698 0.62569,1.55531 0.17252,0.38674 0.45616,0.69033 0.72075,1.01185 0.17975,0.34045 0.48697,0.56484 0.78115,0.79976 0.37964,0.20864 0.7532,0.42323 1.17603,0.53153 0.47987,0.0928 0.97102,0.0933 1.45792,0.0985 0.35205,0.001 0.17571,0.001 0.52906,7.9e-4 0,0 -3.15993,2.29459 -3.15993,2.29459 v 0 c -0.35621,-0.002 -0.17823,-2.7e-4 -0.53394,-0.005 -0.51478,-0.014 -1.0362,-0.03 -1.53274,-0.18126 -0.44384,-0.16053 -0.86256,-0.39032 -1.25824,-0.64608 -0.32169,-0.24412 -0.62813,-0.51514 -0.83154,-0.86951 -0.29274,-0.35169 -0.57479,-0.7081 -0.75552,-1.13398 -0.19648,-0.51168 -0.3663,-1.03208 -0.62719,-1.51592 -0.20269,-0.38747 -0.41123,-0.77653 -0.51738,-1.20332 -0.0771,-0.46026 -0.24468,-0.88669 -0.36879,-1.33422 -0.13444,-0.42038 -0.31705,-0.82354 -0.49784,-1.22563 -0.14134,-0.41361 -0.40634,-0.76651 -0.52973,-1.1887 -0.1285,-0.46523 -0.35851,-0.88386 -0.52052,-1.33722 -0.1437,-0.50222 -0.43067,-0.91269 -0.67308,-1.36928 -0.15398,-0.43484 -0.32121,-0.86862 -0.43478,-1.315 1.85512,-1.28418 3.62798,-3.70746 3.63196,-1.22652 2e-5,0.53464 2e-5,1.06927 5.3e-4,1.60391 7.9e-4,0.53495 0.002,1.0699 0.004,1.60485 0.002,0.53049 0.007,1.06147 -0.0207,1.59144 -0.0388,0.51201 -0.10337,1.02509 -0.36681,1.47751 -0.28805,0.47435 -0.48891,1.00168 -0.81596,1.45703 -2.35605,1.41729 -2.75204,2.32967 -4.84437,2.26737 -0.50871,-0.0123 -1.02262,-0.0251 -1.51854,-0.15117 -0.41282,-0.12497 -0.81768,-0.29443 -1.19678,-0.49886 -0.33816,-0.24032 -0.65542,-0.49459 -0.90934,-0.82699 -0.26835,-0.34248 -0.52909,-0.69071 -0.80097,-1.02979 -0.28268,-0.33103 -0.56674,-0.65979 -0.79986,-1.02924 -0.23276,-0.38467 -0.50855,-0.74365 -0.67694,-1.16476 -0.78166,-1.99323 -1.75572,-0.26108 2.65462,-3.27812 0.27922,0.24005 0.64673,0.33846 0.92708,0.57984 0.31659,0.29102 0.63204,0.5808 0.97913,0.8355 0.32561,0.32143 0.55464,0.68158 0.61809,1.14581 0.10442,0.51214 0.0972,1.02348 0.0647,1.54452 -0.0271,0.47477 -0.0693,0.94994 -0.19566,1.41039 -0.11407,0.49894 -0.0163,1.02323 -0.0698,1.53124 -0.0271,0.46848 -0.0654,0.94011 -0.21642,1.38796 -0.14145,0.43465 -0.0889,0.91464 -0.2471,1.35041 -0.1405,0.56135 -0.0512,1.16744 -0.24182,1.72479 -0.23245,0.83928 -0.59523,1.63547 -0.76287,2.49338 0,0 -3.52174,1.65394 -3.52174,1.65394 z"
       id="path3802"
       style="fill:#ffffff;stroke-width:0.26458332" />
    <path
       d="m 184.97718,254.57688 c 0.91009,0.3332 1.87036,0.49335 2.83024,0.59797 0.62753,0.0605 1.25836,0.0611 1.88811,0.06 0.3531,-0.0329 0.7188,0.0376 1.07074,-0.005 0.14978,-0.018 0.29211,-0.0756 0.43824,-0.11315 0.0419,0.0965 0.71306,-0.29702 0.6476,-0.25974 -5.6578,3.22226 -3.664,2.25757 -2.61701,1.42203 0.36225,-0.33307 0.72245,-0.67201 0.99636,-1.08269 0.2346,-0.41821 0.48781,-0.82541 0.7302,-1.23919 0.28741,-0.38173 0.49479,-0.8085 0.72218,-1.22556 0.18222,-0.38225 0.38924,-0.74704 0.50245,-1.15681 0.10595,-0.47343 0.0802,-0.96033 0.16581,-1.43635 0.0769,-0.46254 0.19738,-0.91857 0.26925,-1.38136 0.0236,-0.44407 -0.38018,-0.46578 -0.69834,-0.61296 -0.41661,-0.18017 -0.87089,-0.20861 -1.31802,-0.2322 -0.52319,-0.019 -1.04687,-0.0155 -1.57031,-0.0144 -0.47261,0.0183 -0.92717,0.16885 -1.40092,0.22192 -0.25563,0.15295 -0.56279,0.15263 -0.83655,0.24004 -0.13114,0.0419 -0.24993,0.11598 -0.37832,0.16564 -1.33881,0.77213 1.48145,-0.85471 2.95502,-1.68846 0.0713,-0.0403 -0.14042,0.0851 -0.20549,0.13485 -0.24918,0.19066 -0.47067,0.42882 -0.70326,0.63885 -0.44662,0.41946 -0.83717,0.89477 -1.29336,1.30412 -0.32866,0.25908 -0.67474,0.49597 -0.98197,0.78065 -0.4838,0.44179 -0.78822,1.01554 -1.08182,1.59058 -0.2288,0.46035 -0.45875,0.92123 -0.66752,1.39121 -0.24043,0.37869 -0.3242,0.81605 -0.44587,1.24027 -0.14966,0.49669 -0.19786,1.01272 -0.22707,1.52805 -0.0224,0.53232 -0.0204,1.06528 -0.0201,1.59795 0.0326,0.48636 -0.098,0.95664 -0.17398,1.43223 -0.0936,0.43895 -0.22915,0.86284 -0.29398,1.30848 -0.0892,0.48571 -0.0269,0.93744 0.14343,1.39371 0.15702,0.42127 0.56083,0.63103 0.88177,0.91286 0.31402,0.24057 0.68548,0.38527 1.01734,0.59426 0.35694,0.16666 0.68527,0.37101 1.07068,0.46826 0.47036,0.0886 0.95131,0.0897 1.42824,0.0955 0.53281,0.003 1.06563,1.2e-4 1.59843,-0.001 0.53532,-10e-4 1.07063,-0.002 1.60595,-0.002 0.53854,0.0407 1.05661,-0.11093 1.58618,-0.18405 0.4381,-0.11277 0.8214,-0.34435 1.24707,-0.48326 0.2647,-0.24169 0.63078,-0.24926 0.92998,-0.41512 0,0 -3.08282,2.43708 -3.08282,2.43708 v 0 c -0.32764,0.10476 -0.62222,0.26743 -0.93759,0.40053 -0.41023,0.18126 -0.8344,0.33548 -1.28038,0.4019 -0.5381,0.0867 -1.0733,0.17617 -1.62137,0.13824 -0.53511,2.6e-4 -1.07022,7.9e-4 -1.60532,0.002 -0.53513,0.001 -1.07032,0.005 -1.6054,-0.005 -0.50584,-0.0139 -1.01857,-0.0281 -1.50704,-0.17454 -0.39223,-0.14176 -0.75683,-0.34683 -1.12588,-0.5394 -0.36448,-0.19459 -0.72987,-0.3946 -1.0506,-0.65764 -0.37697,-0.31739 -0.7834,-0.61286 -0.97331,-1.08772 -0.1887,-0.50552 -0.30689,-1.0156 -0.22845,-1.559 0.0415,-0.4498 0.10638,-0.89727 0.28914,-1.31488 0.0552,-0.46756 0.19974,-0.92059 0.20897,-1.38917 -7.9e-4,-0.53824 -0.003,-1.0766 0.0115,-1.61469 0.0206,-0.53814 0.0526,-1.07877 0.18341,-1.60347 0.11774,-0.44222 0.18427,-0.90518 0.39549,-1.31454 0.28752,-0.43889 0.44685,-0.96031 0.71339,-1.41416 0.32651,-0.55631 0.54487,-1.18796 0.99333,-1.66574 0.28734,-0.33186 0.62012,-0.58741 0.97268,-0.84625 0.533,-0.32245 0.91349,-0.83762 1.34071,-1.28248 1.48129,-1.34304 1.99045,-2.18749 4.63366,-2.97003 0.40646,-0.14462 0.83598,-0.24362 1.25727,-0.33152 0.47266,-0.0802 0.93907,-0.20899 1.42366,-0.17123 0.53079,2.5e-4 1.06229,-0.002 1.59212,0.0343 0.48393,0.0449 0.96434,0.12 1.40626,0.33503 0.48908,0.2065 0.89072,0.46648 0.94327,1.04471 -0.0377,0.47752 -0.20271,0.937 -0.25294,1.41527 -0.11667,0.47636 -0.12255,0.95051 -0.16529,1.43893 -0.0787,0.4711 -0.24274,0.83472 -0.45854,1.25257 -0.21876,0.43251 -0.43576,0.86384 -0.70758,1.26716 -0.29219,0.37217 -0.50169,0.81881 -0.73583,1.22724 -0.26741,0.45045 -0.5682,0.85194 -0.97992,1.18607 -1.2433,1.33116 -2.97501,2.29693 -4.756,2.68105 -0.50975,0.077 -1.02765,0.0329 -1.54157,0.0413 -0.62624,-0.0101 -1.25326,-0.0348 -1.87322,-0.13103 -0.98037,-0.1576 -1.9445,-0.39013 -2.90679,-0.63341 0,0 3.21965,-2.1845 3.21965,-2.1845 z"
       id="path3804"
       style="fill:#ffffff;stroke-width:0.26458332" />
    <path
       d="m 160.89389,196.50609 c -0.48882,0.54242 -0.96468,1.1401 -0.93177,1.90124 0.10107,0.34217 0.3205,0.63519 0.6326,0.80885 0.41941,0.0884 0.7968,0.28352 1.18823,0.45071 0.44266,0.1097 0.78752,0.41725 1.19384,0.60281 0.4531,0.16762 0.90761,0.32939 1.3659,0.48476 0.46053,0.10344 0.86397,0.4185 1.34981,0.36963 0.0616,-0.0101 0.12314,-0.0208 0.18483,-0.0304 0.30822,-0.0481 0.0923,0.0119 0.35911,-0.11806 0.0572,-0.0279 0.2306,-0.10714 0.17538,-0.0755 -6.07525,3.48278 -4.16265,2.3698 -3.07699,1.73755 0.2855,-0.3016 0.57017,-0.60549 0.83749,-0.92386 0.27995,-0.37266 0.51662,-0.78804 0.68801,-1.22208 0.12623,-0.40111 0.19913,-0.82283 0.0481,-1.22494 -0.23077,-0.36246 -0.63945,-0.58895 -0.99921,-0.81057 -0.4143,-0.15526 -0.83761,-0.30125 -1.26677,-0.41649 -0.43089,-0.007 -0.81462,-0.29063 -1.24222,-0.2473 -0.25281,0.0738 -0.53045,0.0325 -0.78408,0.089 -0.13196,0.0294 -0.25288,0.096 -0.38125,0.13843 -1.08583,0.76426 -2.89535,1.63667 2.88322,-1.63288 0.0559,-0.0316 -0.10232,0.0778 -0.15401,0.11593 -0.21423,0.15826 -0.0871,0.0503 -0.28846,0.23898 -0.3039,0.2301 -0.61192,0.45499 -0.91769,0.68358 -0.27922,0.26341 -0.45495,0.60766 -0.75285,0.85334 -0.19081,0.19613 -0.54232,0.32731 -0.54841,0.63942 0.18533,0.27082 0.43882,0.33763 0.74748,0.39383 0.48678,0.041 0.9599,0.0546 1.43661,0.16503 0.46349,0.10812 0.93956,0.13184 1.41336,0.14884 0.27215,-0.0652 0.16318,0.002 0.33831,-0.18045 -1.08973,0.63126 -2.17172,1.27611 -3.2692,1.8938 -0.0187,0.0105 0.0177,-0.0412 0.0155,-0.0625 -0.0109,-0.10844 -0.0395,-0.12042 -0.10405,-0.19912 -0.28301,-0.26255 -0.63833,-0.34244 -0.98444,-0.48335 -0.4213,-0.20785 -0.88406,-0.32954 -1.30897,-0.5261 -2.03139,-0.8048 1.63156,-2.52004 3.22692,-2.58133 0.50768,-0.009 1.01549,-5.3e-4 1.52319,0.004 0.5358,0.004 1.07161,0.005 1.60741,0.006 0.5846,0.0862 0.89809,0.20551 1.02045,0.82365 -0.0235,0.39624 -0.3054,0.71719 -0.52674,1.03087 -1.53051,1.94161 -2.83303,1.88541 -4.53236,2.42657 -0.46858,0.12269 -0.95539,0.13581 -1.43681,0.14916 -0.55964,0.0164 -1.11557,-0.15783 -1.61027,-0.41002 -0.61865,-0.23524 -0.74351,-0.72407 -0.69869,-1.33349 0.0383,-0.56774 0.28163,-1.07253 0.52433,-1.5757 0.22834,-0.50419 0.47409,-0.99614 0.66394,-1.51643 0.21597,-0.41792 0.27948,-0.88506 0.42768,-1.32585 0.54868,-1.20179 3.12673,-3.17877 4.39403,-1.93271 0.37396,0.28778 0.4604,0.73029 0.60577,1.14916 0.16551,0.4349 0.29119,0.86668 0.11725,1.31283 -1.0989,1.39469 -2.8935,2.30834 -4.66144,2.42011 -0.53947,0.0225 -1.07962,0.0161 -1.61941,0.0136 -0.55051,0.008 -0.90528,-0.0581 -0.98953,-0.65349 0.14961,-0.31869 0.45998,-0.5076 0.70799,-0.74455 1.17893,-0.98627 2.48794,-1.50221 3.91944,-2.32703 1.05305,-0.60675 -4.21211,2.42711 -3.16321,1.8132 3.45296,-2.02099 2.27328,-1.59231 3.76881,-2.11701 0.4845,-0.13084 0.98979,-0.13664 1.48815,-0.14585 0.46239,0.10432 0.9246,0.19119 1.39699,0.23332 0.42718,0.17406 0.89732,0.18089 1.32849,0.32726 0.50582,0.10565 0.8225,0.31712 1.05026,0.78447 0.17415,0.49138 0.17275,1.01861 0.18044,1.5335 -5.2e-4,0.46383 -0.13723,0.90132 -0.30527,1.32741 -0.17364,0.39934 -0.34662,0.80497 -0.58887,1.16844 -1.06017,1.32892 -2.73907,2.32977 -4.35466,2.72411 -0.50091,0.0592 -1.01296,-0.0756 -1.51518,-0.12668 -0.50043,0.008 -0.96929,-0.1609 -1.45679,-0.24506 -0.46878,-0.15698 -0.81295,-0.52627 -1.11837,-0.89929 -0.34266,-0.52508 -0.63351,-1.08559 -0.84844,-1.67493 -0.23203,-0.54797 -0.37689,-1.11898 -0.45714,-1.70689 -0.0971,-0.5293 0.0462,-0.99978 0.31395,-1.45188 0.96657,-1.46164 2.7831,-2.38962 4.51713,-2.51797 0.52736,-0.0248 1.05557,-0.0168 1.58331,-0.0136 0.51983,-0.0387 0.9743,0.21768 1.45379,0.36949 0.44379,0.13149 0.91763,0.25824 1.27417,0.56322 0.40656,0.28272 0.66003,0.66661 0.7972,1.13674 0.008,0.0754 0.0152,0.15073 0.0228,0.22609 0,0 -3.49734,1.79747 -3.49734,1.79747 v 0 c 0.003,-0.0559 0.006,-0.11186 0.009,-0.16779 -0.0338,-0.4122 -0.34475,-0.66352 -0.65822,-0.89556 -0.35323,-0.23367 -0.78905,-0.32528 -1.18497,-0.4633 -0.44928,-0.1564 -0.88994,-0.31556 -1.37599,-0.2724 -0.51999,-5.3e-4 -1.04297,-0.008 -1.55928,0.0628 -0.17773,0.0357 -0.27904,0.0466 -0.44642,0.1163 -0.0658,0.0274 -0.25115,0.13487 -0.18986,0.0985 6.28378,-3.73195 3.78206,-2.4461 2.84173,-1.62632 -0.24265,0.38494 -0.53198,0.73642 -0.44542,1.22459 0.0596,0.56482 0.17765,1.1165 0.40518,1.64018 0.18268,0.55368 0.45654,1.06363 0.8009,1.5348 0.27258,0.30503 0.55363,0.6046 0.97573,0.67722 0.47328,0.10016 0.94057,0.21604 1.42788,0.22554 0.47527,0.0535 0.96613,0.16876 1.42268,-0.0297 1.27277,-0.65775 0.28532,-0.15153 -2.98893,1.75992 -0.45473,0.26547 1.13977,-0.68856 0.6599,-0.49258 0.0797,-0.12143 0.18112,-0.22764 0.2608,-0.34909 0.1498,-0.22833 0.16915,-0.52549 0.36158,-0.73133 0.13254,-0.40608 0.33901,-0.77682 0.38534,-1.21095 -0.004,-0.45811 0.006,-0.92754 -0.1215,-1.3717 -0.16777,-0.35914 -0.5092,-0.40809 -0.86825,-0.50527 -0.42777,-0.0921 -0.85489,-0.18628 -1.28202,-0.27915 -0.45475,-0.0564 -0.90148,-0.17363 -1.35935,-0.19168 -0.48058,0.026 -0.96921,0.0602 -1.41065,0.27075 -0.0649,0.0342 -0.25827,0.13963 -0.19482,0.10271 1.05187,-0.61204 4.22643,-2.41484 3.16022,-1.82815 -1.45716,0.80181 -7.52849,4.37263 -0.40862,0.21242 0.12348,-0.0721 -0.49249,0.26302 -0.35666,0.23849 -0.25875,0.18416 -0.45475,0.43657 -0.73127,0.58997 -0.0493,-0.0296 -0.20478,-0.1045 -0.15222,-0.0812 0.2098,0.0931 0.45344,0.0586 0.67459,0.0676 0.53268,5.3e-4 1.06712,0.006 1.59757,-0.0496 0.1933,-0.0287 0.30549,-0.0382 0.49274,-0.0937 0.0756,-0.0224 0.29005,-0.12128 0.22233,-0.0809 -5.14277,3.06816 -4.03967,2.23097 -2.79282,1.66863 0.37454,-0.33285 0.1819,-0.57466 0.0489,-0.99771 -0.12663,-0.35695 -0.17181,-0.72982 -0.51167,-0.95926 -0.12024,-0.0701 -0.23874,-0.10234 -0.37927,-0.0511 -0.0443,0.0162 -0.15937,0.10099 -0.11886,0.0768 3.33653,-1.9909 4.25502,-2.48435 3.00853,-1.81043 -0.24796,0.40808 -0.20525,0.89846 -0.43096,1.32099 -0.1224,0.23715 -0.18061,0.48554 -0.29117,0.72821 -0.51491,1.13008 0.26651,-0.6309 -0.27544,0.50916 -0.0458,0.0964 -0.0776,0.19877 -0.11633,0.29816 -0.21225,0.474 -0.4937,0.93493 -0.56794,1.45435 -0.0799,0.54604 -0.0852,0.68106 0.46045,0.91187 0.47946,0.19948 0.98218,0.3061 1.50372,0.25438 0.47048,-0.0306 0.94151,-0.0791 1.38839,-0.24 0.20766,-0.065 0.42895,-0.0988 0.63069,-0.18087 0.0644,-0.0262 0.24614,-0.12958 0.18629,-0.0941 -3.00116,1.77862 -4.28052,2.44174 -3.01272,1.78107 0.25206,-0.22784 0.37314,-0.55814 0.63772,-0.75771 0.13806,-0.33852 -0.47399,-0.31207 -0.66622,-0.33177 -0.53635,-0.001 -1.0727,-0.004 -1.60905,-0.007 -0.50349,-0.002 -1.00973,-0.0141 -1.51054,0.0465 -1.4612,0.29474 0.24152,-0.0234 2.97405,-1.95207 0.11375,-0.0803 -0.37235,-0.25102 0.0136,-0.0718 0.065,0.0302 0.13189,0.0559 0.19783,0.0838 0.43536,0.16438 0.85771,0.35481 1.29389,0.5159 0.4239,0.14367 0.81313,0.33105 1.12786,0.65971 1.12528,1.59094 -1.90793,2.90953 -3.54662,2.84257 -0.49042,-0.0287 -0.9793,-0.0779 -1.45814,-0.19291 -0.48004,-0.088 -0.97291,-0.057 -1.44859,-0.17656 -0.43175,-0.13471 -0.78266,-0.34755 -1.00283,-0.75744 -0.11825,-0.41632 -0.0162,-0.80633 0.3902,-1.01713 0.37098,-0.35981 -0.0978,0.0714 0.29796,-0.22211 0.2029,-0.15047 0.31759,-0.42217 0.45804,-0.62351 0.25015,-0.28617 0.5809,-0.519 0.91095,-0.70114 0.47634,-0.36441 -0.18542,0.15885 0.27777,-0.26713 1.13276,-1.04176 2.58625,-1.80759 4.04058,-2.32823 0.40657,-0.10127 0.83903,-0.13513 1.25691,-0.11716 0.42761,0.1019 0.84654,0.23662 1.27841,0.32136 0.44878,0.14673 0.91448,0.2705 1.32181,0.51419 0.42164,0.28678 0.88393,0.55431 1.13932,1.01286 0.18935,0.47973 0.17963,0.97007 0.0627,1.47002 -0.13119,0.49053 -0.39061,0.91211 -0.63443,1.35304 -0.25494,0.33252 -0.53203,0.63444 -0.80026,0.95165 -0.83685,1.32455 -2.8208,2.31458 -4.4754,2.28048 -0.47855,-0.10971 -0.9164,-0.32361 -1.38494,-0.46593 -0.47492,-0.16498 -0.95921,-0.30646 -1.41692,-0.51713 -0.3819,-0.21323 -0.74561,-0.46026 -1.17008,-0.58751 -0.41102,-0.17753 -0.84361,-0.301 -1.24155,-0.50407 -0.37746,-0.29022 -0.65911,-0.66362 -0.78908,-1.12765 -0.0836,-0.87377 0.30231,-1.50146 0.81473,-2.18294 0,0 3.58614,-1.51778 3.58614,-1.51778 z"
       id="path3806"
       style="fill:#ffffff;stroke-width:0.26458332" />
  </g>
</svg>
